<svg width="45" height="29" viewBox="0 0 45 29" fill="none" xmlns="http://www.w3.org/2000/svg">
<path d="M36.8182 18.125V3.625C36.8182 1.63125 34.9773 0 32.7273 0H4.09091C1.84091 0 0 1.63125 0 3.625V18.125C0 20.1187 1.84091 21.75 4.09091 21.75H32.7273C34.9773 21.75 36.8182 20.1187 36.8182 18.125ZM18.4091 16.3125C15.0136 16.3125 12.2727 13.8837 12.2727 10.875C12.2727 7.86625 15.0136 5.4375 18.4091 5.4375C21.8045 5.4375 24.5455 7.86625 24.5455 10.875C24.5455 13.8837 21.8045 16.3125 18.4091 16.3125ZM45 5.4375V25.375C45 27.3687 43.1591 29 40.9091 29H6.13636V25.375H40.9091V5.4375H45Z" fill="white"/>
</svg>
