<svg width="35" height="46" viewBox="0 0 35 46" fill="none" xmlns="http://www.w3.org/2000/svg">
<path d="M20.1923 8.55814C23.1538 8.55814 25.5769 6.63256 25.5769 4.27907C25.5769 1.92558 23.1538 0 20.1923 0C17.2308 0 14.8077 1.92558 14.8077 4.27907C14.8077 6.63256 17.2308 8.55814 20.1923 8.55814ZM10.2308 15.8326L2.69231 46H8.34616L13.1923 28.8837L18.8462 33.1628V46H24.2308V29.9535L18.5769 25.6744L20.1923 19.2558C23.6923 22.4651 29.0769 24.6047 35 24.6047V20.3256C29.8846 20.3256 25.5769 18.186 23.4231 15.1907L20.7308 11.7674C20.0037 10.8435 18.8866 10.1553 17.5794 9.82604C16.2722 9.49677 14.8603 9.54788 13.5962 9.97023L0 14.5488V24.6047H5.38462V17.3302L10.2308 15.8326Z" fill="white"/>
</svg>
