<svg width="38" height="29" viewBox="0 0 38 29" fill="none" xmlns="http://www.w3.org/2000/svg">
<path d="M7.33301 28.3333V13.0833L2.66634 16.6667L0.708008 14.0417L18.9997 0L37.333 14L35.333 16.6667L30.6663 13.0833V28.3333H7.33301ZM18.9997 21.6667C19.9163 21.6667 20.7013 21.3406 21.3547 20.6883C22.008 20.0361 22.3341 19.2511 22.333 18.3333C22.333 17.5833 22.1247 16.785 21.708 15.9383C21.2913 15.0917 20.3886 13.6678 18.9997 11.6667C17.6108 13.6667 16.708 15.0906 16.2913 15.9383C15.8747 16.7861 15.6663 17.5844 15.6663 18.3333C15.6663 19.25 15.993 20.035 16.6463 20.6883C17.2997 21.3417 18.0841 21.6678 18.9997 21.6667Z" fill="white"/>
</svg>
