<svg width="34" height="40" viewBox="0 0 34 40" fill="none" xmlns="http://www.w3.org/2000/svg">
<path d="M7.29134 2.33333L9.66634 0L26.333 16.6667L13.6663 29.3333L0.999675 16.6667L11.2913 6.33333L7.29134 2.33333ZM13.6663 8.70833L5.70801 16.6667H21.6247L13.6663 8.70833ZM28.6663 28.3333C27.7497 28.3333 26.9652 28.0072 26.313 27.355C25.6608 26.7028 25.3341 25.9178 25.333 25C25.333 24.4167 25.5069 23.7917 25.8547 23.125C26.2025 22.4583 26.5841 21.8333 26.9997 21.25C27.2497 20.9167 27.5136 20.5694 27.7913 20.2083C28.0691 19.8472 28.3608 19.5 28.6663 19.1667C28.9719 19.5 29.2636 19.8472 29.5413 20.2083C29.8191 20.5694 30.083 20.9167 30.333 21.25C30.7497 21.8333 31.1319 22.4583 31.4797 23.125C31.8275 23.7917 32.0008 24.4167 31.9997 25C31.9997 25.9167 31.6736 26.7017 31.0213 27.355C30.3691 28.0083 29.5841 28.3344 28.6663 28.3333ZM0.333008 40V33.3333H33.6663V40H0.333008Z" fill="white"/>
</svg>
