<svg width="45" height="40" viewBox="0 0 45 40" fill="none" xmlns="http://www.w3.org/2000/svg">
<path d="M18 0H2.25C0.9 0 0 0.8 0 2V16C0 17.2 0.9 18 2.25 18H18C19.35 18 20.25 17.2 20.25 16V2C20.25 0.8 19.35 0 18 0ZM18 22H2.25C0.9 22 0 22.8 0 24V38C0 39.2 0.9 40 2.25 40H18C19.35 40 20.25 39.2 20.25 38V24C20.25 22.8 19.35 22 18 22ZM42.75 0H27C25.65 0 24.75 0.8 24.75 2V16C24.75 17.2 25.65 18 27 18H42.75C44.1 18 45 17.2 45 16V2C45 0.8 44.1 0 42.75 0ZM42.75 22H27C25.65 22 24.75 22.8 24.75 24V38C24.75 39.2 25.65 40 27 40H42.75C44.1 40 45 39.2 45 38V24C45 22.8 44.1 22 42.75 22Z" fill="white"/>
</svg>
