<svg width="30" height="28" viewBox="0 0 30 28" fill="none" xmlns="http://www.w3.org/2000/svg">
<path d="M25 19.0013V15.668H28.3333C28.8056 15.668 29.2017 15.828 29.5217 16.148C29.8417 16.468 30.0011 16.8635 30 17.3346C29.9989 17.8057 29.8389 18.2019 29.52 18.523C29.2011 18.8441 28.8056 19.0035 28.3333 19.0013H25ZM25 25.668V22.3346H28.3333C28.8056 22.3346 29.2017 22.4946 29.5217 22.8146C29.8417 23.1346 30.0011 23.5302 30 24.0013C29.9989 24.4724 29.8389 24.8685 29.52 25.1896C29.2011 25.5107 28.8056 25.6702 28.3333 25.668H25ZM18.3333 27.3346C17.4167 27.3346 16.6322 27.0085 15.98 26.3563C15.3278 25.7041 15.0011 24.9191 15 24.0013H11.6667V17.3346H15C15 16.418 15.3267 15.6335 15.98 14.9813C16.6333 14.3291 17.4178 14.0024 18.3333 14.0013H23.3333V27.3346H18.3333ZM6.66667 22.3346C4.83333 22.3346 3.26389 21.6819 1.95833 20.3763C0.652778 19.0707 0 17.5013 0 15.668C0 13.8346 0.652778 12.2652 1.95833 10.9596C3.26389 9.65408 4.83333 9.0013 6.66667 9.0013H9.16667C9.86111 9.0013 10.4517 8.75852 10.9383 8.27297C11.425 7.78741 11.6678 7.19686 11.6667 6.5013C11.6656 5.80575 11.4228 5.21575 10.9383 4.7313C10.4539 4.24686 9.86333 4.00352 9.16667 4.0013H3.33333C2.86111 4.0013 2.46556 3.8413 2.14667 3.5213C1.82778 3.2013 1.66778 2.80575 1.66667 2.33464C1.66556 1.86352 1.82556 1.46797 2.14667 1.14797C2.46778 0.827969 2.86333 0.667969 3.33333 0.667969H9.16667C10.7778 0.667969 12.1528 1.23741 13.2917 2.3763C14.4306 3.51519 15 4.89019 15 6.5013C15 8.11241 14.4306 9.48741 13.2917 10.6263C12.1528 11.7652 10.7778 12.3346 9.16667 12.3346H6.66667C5.75 12.3346 4.96556 12.6613 4.31333 13.3146C3.66111 13.968 3.33444 14.7524 3.33333 15.668C3.33222 16.5835 3.65889 17.3685 4.31333 18.023C4.96778 18.6774 5.75222 19.0035 6.66667 19.0013H10V22.3346H6.66667Z" fill="white"/>
</svg>
