<svg width="44" height="44" viewBox="0 0 44 44" fill="none" xmlns="http://www.w3.org/2000/svg">
<path d="M31.469 2.76375C34.1084 2.90018 36.5946 4.04474 38.4146 5.96117C40.2345 7.8776 41.2492 10.4196 41.2492 13.0625C41.2492 15.7054 40.2345 18.2474 38.4146 20.1638C36.5946 22.0803 34.1084 23.2248 31.469 23.3612L30.9383 23.375C30.3406 23.3732 29.7585 23.3209 29.192 23.2182L27.6658 24.75L30.2535 27.335L33.0035 24.585L39.6173 31.2015L40.027 31.6525C40.953 32.7959 41.4227 34.2416 41.3457 35.7109C41.2687 37.1802 40.6504 38.5689 39.6101 39.6093C38.5697 40.6496 37.181 41.2679 35.7117 41.3449C34.2424 41.4219 32.7967 40.9522 31.6533 40.0263L31.2023 39.6165L24.583 33L27.333 30.25L24.748 27.665L12.802 39.6137C11.7607 40.6556 10.3699 41.2742 8.89883 41.3499C7.42773 41.4256 5.98083 40.953 4.83805 40.0235L4.38705 39.6137C3.27132 38.4978 2.64453 36.9843 2.64453 35.4062C2.64453 33.8282 3.27132 32.3147 4.38705 31.1988L16.3303 19.2473L9.6258 12.5427L7.9318 14.2368L6.5348 12.144L3.7848 8.019L2.8498 6.611L6.6118 2.84625L8.0198 3.784L12.1448 6.534L14.2348 7.931L12.5435 9.625L19.248 16.3295L20.7798 14.8005C20.5269 13.3212 20.5999 11.8044 20.9937 10.3562C21.3876 8.90802 22.0928 7.56323 23.0601 6.41575C24.0274 5.26827 25.2335 4.34575 26.5943 3.7126C27.955 3.07946 29.4375 2.75094 30.9383 2.75L31.469 2.76375ZM30.9383 6.875C29.9722 6.87507 29.0195 7.10137 28.1566 7.53578C27.2936 7.97018 26.5444 8.60063 25.9689 9.37662C25.3934 10.1526 25.0076 11.0526 24.8424 12.0045C24.6772 12.9564 24.7372 13.9337 25.0175 14.8582L25.375 16.0408L24.5005 16.9125L7.30205 34.1137C6.96014 34.457 6.76817 34.9218 6.76817 35.4062C6.76817 35.8907 6.96014 36.3555 7.30205 36.6988L7.5908 36.9325C8.29755 37.4 9.2628 37.323 9.88705 36.6988L27.0855 19.4975L27.9573 18.623L29.1398 18.9805C29.7155 19.1565 30.315 19.2463 30.9383 19.25L31.5708 19.217C32.5563 19.1146 33.5029 18.7769 34.3307 18.2325C35.1586 17.6881 35.8437 16.9528 36.3282 16.0886C36.8128 15.2243 37.0827 14.2563 37.1152 13.2659C37.1478 12.2756 36.942 11.292 36.5153 10.3977L32.3958 14.5228C32.0066 14.8983 31.4855 15.1059 30.9448 15.101C30.404 15.096 29.8868 14.8789 29.5045 14.4963C29.1223 14.1137 28.9057 13.5963 28.9012 13.0555C28.8968 12.5147 29.1049 11.9938 29.4808 11.605L33.6003 7.48C32.9625 7.17201 32.2756 6.9784 31.5708 6.908L30.9383 6.875ZM30.4158 33L34.1145 36.6988L34.4033 36.9325C34.7544 37.1644 35.1748 37.2679 35.5935 37.2255C36.0121 37.1832 36.4033 36.9975 36.7008 36.7C36.9983 36.4025 37.184 36.0113 37.2263 35.5927C37.2687 35.174 37.1652 34.7536 36.9333 34.4025L36.6995 34.1137L33.0008 30.415L30.4158 33Z" fill="white"/>
</svg>
