<svg width="56" height="44" viewBox="0 0 56 44" fill="none" xmlns="http://www.w3.org/2000/svg">
<path d="M38.1818 18.8571C42.4073 18.8571 45.7927 14.6457 45.7927 9.42857C45.7927 4.21143 42.4073 0 38.1818 0C33.9564 0 30.5455 4.21143 30.5455 9.42857C30.5455 14.6457 33.9564 18.8571 38.1818 18.8571ZM17.8182 18.8571C22.0436 18.8571 25.4291 14.6457 25.4291 9.42857C25.4291 4.21143 22.0436 0 17.8182 0C13.5927 0 10.1818 4.21143 10.1818 9.42857C10.1818 14.6457 13.5927 18.8571 17.8182 18.8571ZM17.8182 25.1429C11.8873 25.1429 0 28.82 0 36.1429V40.8571C0 42.5857 1.14545 44 2.54545 44H33.0909C34.4909 44 35.6364 42.5857 35.6364 40.8571V36.1429C35.6364 28.82 23.7491 25.1429 17.8182 25.1429ZM38.1818 25.1429C37.4436 25.1429 36.6036 25.2057 35.7127 25.3C35.7636 25.3314 35.7891 25.3943 35.8145 25.4257C38.7164 28.0343 40.7273 31.5229 40.7273 36.1429V40.8571C40.7273 41.9571 40.5491 43.0257 40.2691 44H53.4545C54.8545 44 56 42.5857 56 40.8571V36.1429C56 28.82 44.1127 25.1429 38.1818 25.1429Z" fill="white"/>
</svg>
