<svg width="45" height="40" viewBox="0 0 45 40" fill="none" xmlns="http://www.w3.org/2000/svg">
<path d="M13.5125 39.9999C12.2738 39.9999 11.2139 39.6086 10.3326 38.826C9.45124 38.0433 9.00983 37.1013 9.00833 36C9.00683 34.8986 9.44823 33.9573 10.3326 33.176C11.2169 32.3946 12.2768 32.0026 13.5125 32C14.7481 31.9973 15.8089 32.3893 16.6947 33.176C17.5805 33.9626 18.0212 34.904 18.0167 36C18.0121 37.096 17.5715 38.0379 16.6947 38.826C15.8179 39.6139 14.7571 40.0053 13.5125 39.9999ZM36.0333 39.9999C34.7946 39.9999 33.7347 39.6086 32.8534 38.826C31.972 38.0433 31.5306 37.1013 31.5291 36C31.5276 34.8986 31.969 33.9573 32.8534 33.176C33.7377 32.3946 34.7976 32.0026 36.0333 32C37.2689 31.9973 38.3297 32.3893 39.2155 33.176C40.1013 33.9626 40.542 34.904 40.5375 36C40.5329 37.096 40.0923 38.0379 39.2155 38.826C38.3387 39.6139 37.2779 40.0053 36.0333 39.9999ZM9.45874 3.99999H42.6769C43.5402 3.99999 44.1971 4.34199 44.6475 5.02599C45.0979 5.70999 45.1167 6.40133 44.7038 7.09999L36.7089 19.9C36.296 20.5666 35.7428 21.0833 35.0491 21.45C34.3555 21.8166 33.595 22 32.7678 22H15.9898L13.5125 26H38.2854C38.9235 26 39.4587 26.192 39.8911 26.576C40.3235 26.96 40.539 27.4346 40.5375 28C40.5359 28.5653 40.3198 29.0406 39.8889 29.426C39.458 29.8113 38.9235 30.0026 38.2854 30H13.5125C11.8234 30 10.5472 29.342 9.68395 28.026C8.82066 26.71 8.78312 25.4013 9.57135 24.1L12.6117 19.2L4.50417 3.99999H2.25209C1.614 3.99999 1.0795 3.80799 0.648607 3.424C0.217709 3.04 0.00150915 2.56533 7.76579e-06 2C-0.00149362 1.43466 0.214706 0.959999 0.648607 0.575999C1.08251 0.192 1.617 0 2.25209 0H5.91172C6.3246 0 6.71871 0.1 7.09406 0.3C7.46941 0.5 7.75092 0.783332 7.93859 1.15L9.45874 3.99999Z" fill="white"/>
</svg>
