<svg width="30" height="30" viewBox="0 0 30 30" fill="none" xmlns="http://www.w3.org/2000/svg">
<path d="M0 30V26.6667H3.33333V3.33333C3.33333 2.41667 3.66 1.63222 4.31333 0.98C4.96667 0.327778 5.75111 0.00111111 6.66667 0H23.3333C24.25 0 25.035 0.326667 25.6883 0.98C26.3417 1.63333 26.6678 2.41778 26.6667 3.33333V26.6667H30V30H0ZM18.3333 16.6667C18.8056 16.6667 19.2017 16.5067 19.5217 16.1867C19.8417 15.8667 20.0011 15.4711 20 15C19.9989 14.5289 19.8389 14.1333 19.52 13.8133C19.2011 13.4933 18.8056 13.3333 18.3333 13.3333C17.8611 13.3333 17.4656 13.4933 17.1467 13.8133C16.8278 14.1333 16.6678 14.5289 16.6667 15C16.6656 15.4711 16.8256 15.8672 17.1467 16.1883C17.4678 16.5094 17.8633 16.6689 18.3333 16.6667Z" fill="white"/>
</svg>
