<svg width="45" height="45" viewBox="0 0 45 45" fill="none" xmlns="http://www.w3.org/2000/svg">
<path d="M18.905 32.27L34.895 16.28L33.125 14.51L18.905 28.73L11.78 21.605L10.01 23.375L18.905 32.27ZM22.5075 45C19.3975 45 16.4725 44.41 13.7325 43.23C10.9942 42.0483 8.61167 40.445 6.585 38.42C4.55833 36.395 2.95417 34.015 1.7725 31.28C0.590834 28.545 0 25.6208 0 22.5075C0 19.3942 0.590834 16.4692 1.7725 13.7325C2.9525 10.9942 4.55333 8.61167 6.575 6.585C8.59667 4.55833 10.9775 2.95417 13.7175 1.7725C16.4575 0.590834 19.3825 0 22.4925 0C25.6025 0 28.5275 0.590834 31.2675 1.7725C34.0058 2.9525 36.3883 4.55417 38.415 6.5775C40.4417 8.60083 42.0458 10.9817 43.2275 13.72C44.4092 16.4583 45 19.3825 45 22.4925C45 25.6025 44.41 28.5275 43.23 31.2675C42.05 34.0075 40.4467 36.39 38.42 38.415C36.3933 40.44 34.0133 42.0442 31.28 43.2275C28.5467 44.4108 25.6225 45.0017 22.5075 45Z" fill="white"/>
</svg>
