<svg width="45" height="31" viewBox="0 0 45 31" fill="none" xmlns="http://www.w3.org/2000/svg">
<path d="M29.7593 31L21.2812 24.2208L22.9682 22.8718L29.7593 28.302L43.3129 17.4644L45 18.8115L29.7593 31ZM3.84829 26.6749C2.78395 26.6749 1.87609 26.3751 1.1247 25.7755C0.3749 25.176 0 24.4501 0 23.5977V3.07714C0 2.22608 0.3749 1.50014 1.1247 0.899324C1.8745 0.299775 2.78316 0 3.85068 0H39.0429C40.1072 0 41.0151 0.299775 41.7665 0.899324C42.5163 1.49887 42.8912 2.22545 42.8912 3.07904V12.4648L29.7712 22.9194L22.9682 17.4778L14.5496 24.2093L17.633 26.6749H3.84829ZM21.4456 13.5585L40.5083 3.59158L39.7744 1.90535L21.4456 11.4321L3.11676 1.90535L2.38284 3.59158L21.4456 13.5585Z" fill="white"/>
</svg>
