<svg width="29" height="34" viewBox="0 0 29 34" fill="none" xmlns="http://www.w3.org/2000/svg">
<path d="M3.16699 33.6654V21.1654H0.666992V11.9987C0.666992 11.082 0.993659 10.2976 1.64699 9.64538C2.30033 8.99315 3.08477 8.66649 4.00033 8.66538H9.00033C9.91699 8.66538 10.702 8.99204 11.3553 9.64538C12.0087 10.2987 12.3348 11.0832 12.3337 11.9987V21.1654H9.83366V33.6654H3.16699ZM6.50033 6.99871C5.58366 6.99871 4.79921 6.6726 4.14699 6.02038C3.49477 5.36815 3.1681 4.58315 3.16699 3.66538C3.16588 2.7476 3.49255 1.96315 4.14699 1.31204C4.80144 0.660931 5.58588 0.334265 6.50033 0.332043C7.41477 0.32982 8.19977 0.656487 8.85533 1.31204C9.51088 1.9676 9.83699 2.75204 9.83366 3.66538C9.83033 4.57871 9.50422 5.36371 8.85533 6.02038C8.20644 6.67704 7.42144 7.00315 6.50033 6.99871ZM19.0003 33.6654V23.6654H14.0003L18.2503 10.9154C18.4725 10.1932 18.8825 9.6376 19.4803 9.24871C20.0781 8.85982 20.7514 8.66538 21.5003 8.66538C22.2492 8.66538 22.9231 8.85982 23.522 9.24871C24.1209 9.6376 24.5303 10.1932 24.7503 10.9154L29.0003 23.6654H24.0003V33.6654H19.0003ZM21.5003 6.99871C20.5837 6.99871 19.7992 6.6726 19.147 6.02038C18.4948 5.36815 18.1681 4.58315 18.167 3.66538C18.1659 2.7476 18.4925 1.96315 19.147 1.31204C19.8014 0.660931 20.5859 0.334265 21.5003 0.332043C22.4148 0.32982 23.1998 0.656487 23.8553 1.31204C24.5109 1.9676 24.837 2.75204 24.8337 3.66538C24.8303 4.57871 24.5042 5.36371 23.8553 6.02038C23.2064 6.67704 22.4214 7.00315 21.5003 6.99871Z" fill="white"/>
</svg>
